<svg xmlns="http://www.w3.org/2000/svg" viewBox="0 0 1677.286 1677.286"><path d="M1588.5 838.63c11.415-14.901 18.472-33.406 13.87-61.029-20.32-124.96-179.43-103.81-139.41-241.01-42.223 136.95 115.39 120.69 132.95 242 3.974 28.307-5.269 45.737-18.88 60.036 13.611 14.299 22.854 31.729 18.88 60.036-17.554 121.31-175.17 105.06-132.95 242-40.025-137.2 119.09-116.05 139.41-241.01 4.601-27.624-2.455-46.129-13.87-61.03zm-749.86 749.9c14.902 11.415 33.406 18.472 61.029 13.87 124.96-20.32 103.81-179.43 241.01-139.41-136.95-42.223-120.69 115.39-242 132.95-28.307 3.974-45.737-5.269-60.036-18.88-14.299 13.611-31.728 22.853-60.036 18.88-121.31-17.554-105.06-175.17-242-132.95 137.2-40.025 116.05 119.09 241.01 139.41 27.624 4.602 46.128-2.455 61.03-13.87zM88.77 838.63c-11.415 14.901-18.472 33.406-13.87 61.029 20.32 124.96 179.43 103.81 139.41 241.01 42.223-136.95-115.39-120.69-132.95-242-3.974-28.307 5.269-45.737 18.88-60.036-13.611-14.299-22.853-31.729-18.88-60.036 17.555-121.31 175.17-105.05 132.95-242 40.026 137.2-119.09 116.05-139.41 241.01-4.602 27.623 2.455 46.128 13.87 61.03zM838.64 88.77c-14.901-11.415-33.406-18.472-61.029-13.87-124.96 20.32-103.81 179.43-241.01 139.41 136.95 42.223 120.69-115.39 242-132.95 28.307-3.974 45.737 5.269 60.036 18.88 14.299-13.611 31.729-22.853 60.036-18.88 121.31 17.554 105.06 175.17 242 132.95-137.2 40.025-116.05-119.09-241.01-139.41-27.624-4.602-46.129 2.455-61.03 13.87z"/><path d="M714.04 107.01a99.073 99.073 0 0 1-4.173.967c-71.864 69.49-167.9 9.333-134.76-47.175 14.989-25.557 50.161-25.77 59.511.665 10.263 29.02-20.456 62.541-47.95 69.536-42.856 10.904-67.349-33.579-43.282-55.336 12.15-10.984 29.908-7.899 37.997 4.379-12.554-19.494-43.308-13.008-47.684 12.202-6.105 35.173 44.991 62.839 86.688 20.01 41.894-43.018 4.175-89.836-33.003-68.121-12.228 7.148-20.313 20.27-21.598 35.269-4.925 59.529 84.642 91.877 147.22 31.826.377-1.41.723-2.818 1.036-4.222zM107.01 963.23c.355 1.395.677 2.786.967 4.173 69.49 71.864 9.333 167.9-47.175 134.76-25.557-14.989-25.77-50.161.665-59.511 29.02-10.263 62.541 20.456 69.536 47.95 10.904 42.856-33.579 67.349-55.336 43.282-10.984-12.15-7.899-29.908 4.379-37.997-19.494 12.554-13.008 43.308 12.202 47.684 35.173 6.105 62.839-44.991 20.01-86.688-43.018-41.894-89.836-4.175-68.121 33.003 7.148 12.228 20.27 20.313 35.269 21.598 59.529 4.925 91.877-84.642 31.826-147.22-1.41-.377-2.818-.723-4.222-1.036zm856.23 607a99.073 99.073 0 0 1 4.173-.967c71.864-69.49 167.9-9.333 134.76 47.175-14.989 25.557-50.161 25.77-59.511-.665-10.263-29.02 20.456-62.541 47.95-69.536 42.856-10.904 67.349 33.579 43.282 55.336-12.15 10.984-29.908 7.899-37.997-4.379 12.554 19.494 43.308 13.008 47.684-12.203 6.105-35.173-44.991-62.839-86.688-20.01-41.894 43.018-4.175 89.836 33.003 68.121 12.228-7.148 20.313-20.27 21.598-35.269 4.925-59.529-84.642-91.877-147.22-31.826-.376 1.41-.722 2.818-1.036 4.223zm607.06-856.2a99.073 99.073 0 0 1-.967-4.173c-69.49-71.864-9.333-167.9 47.175-134.76 25.557 14.989 25.77 50.161-.665 59.511-29.02 10.263-62.541-20.456-69.536-47.95-10.904-42.856 33.579-67.349 55.336-43.282 10.984 12.15 7.899 29.908-4.379 37.997 19.494-12.554 13.008-43.308-12.203-47.684-35.173-6.105-62.839 44.991-20.01 86.688 43.018 41.894 89.836 4.175 68.121-33.003-7.148-12.228-20.27-20.313-35.269-21.598-59.529-4.925-91.877 84.642-31.826 147.22 1.41.377 2.818.722 4.223 1.036zM963.24 107.01c1.394.355 2.786.677 4.173.967 71.864 69.49 167.9 9.333 134.76-47.175-14.989-25.557-50.161-25.77-59.511.665-10.263 29.02 20.456 62.541 47.95 69.536 42.856 10.904 67.349-33.579 43.282-55.336-12.15-10.984-29.908-7.899-37.997 4.379 12.554-19.494 43.308-13.008 47.684 12.202 6.105 35.173-44.991 62.839-86.688 20.01-41.894-43.018-4.175-89.836 33.003-68.121 12.228 7.148 20.313 20.27 21.598 35.269 4.925 59.529-84.642 91.877-147.22 31.826-.376-1.41-.722-2.818-1.036-4.222zM107.01 714.03c.355-1.394.677-2.786.967-4.173 69.49-71.864 9.333-167.9-47.175-134.76-25.557 14.989-25.77 50.161.665 59.511 29.02 10.263 62.541-20.456 69.536-47.95 10.904-42.856-33.579-67.349-55.336-43.282-10.984 12.15-7.899 29.908 4.379 37.997-19.494-12.555-13.007-43.309 12.203-47.685 35.173-6.105 62.839 44.991 20.01 86.688-43.018 41.894-89.836 4.175-68.121-33.003 7.148-12.228 20.27-20.313 35.269-21.598 59.529-4.925 91.877 84.642 31.826 147.22a104.22 104.22 0 0 1-4.223 1.037zm607.03 856.2a99.073 99.073 0 0 0-4.173-.967c-71.864-69.49-167.9-9.333-134.76 47.175 14.989 25.557 50.161 25.77 59.511-.665 10.263-29.02-20.456-62.541-47.95-69.536-42.856-10.904-67.349 33.579-43.282 55.336 12.15 10.984 29.908 7.899 37.997-4.379-12.554 19.494-43.308 13.008-47.684-12.203-6.105-35.173 44.991-62.839 86.688-20.01 41.894 43.018 4.175 89.836-33.003 68.121-12.228-7.148-20.313-20.27-21.598-35.269-4.925-59.529 84.642-91.877 147.22-31.826.377 1.41.723 2.818 1.036 4.223zm856.26-607a99.437 99.437 0 0 0-.967 4.173c-69.49 71.864-9.333 167.9 47.175 134.76 25.557-14.989 25.77-50.161-.665-59.511-29.02-10.263-62.541 20.456-69.536 47.95-10.904 42.856 33.579 67.349 55.336 43.282 10.984-12.15 7.899-29.908-4.379-37.997 19.494 12.554 13.008 43.308-12.203 47.684-35.173 6.105-62.839-44.991-20.01-86.688 43.018-41.894 89.836-4.175 68.121 33.003-7.148 12.228-20.27 20.313-35.269 21.598-59.529 4.925-91.877-84.642-31.826-147.22 1.41-.377 2.818-.723 4.223-1.036zM627.74 204.5c-25.389 15.188-23.238 48.998-2.104 52.216 11.487 1.712 19.975-8.702 16.188-17.307-5.443-12.357-25.642-6.67-32.165 5.966-7.209 13.963 6.308 25.72 15.555 19.188 4.559-3.22 5.018-9.426 1.456-13.137 5.417 5.772.706 15.277-7.826 14.63-11.763-.892-16.647-19.539.522-29.626 13.591-7.982 24.302.33 22.069 9.599-2.565 10.645-18.486 13.822-26.816 2.274-9.226-12.79-1.617-33.129 13.974-42.37l-.853-1.433zM204.5 1049.53c15.188 25.389 48.998 23.239 52.216 2.104 1.712-11.487-8.702-19.975-17.307-16.188-12.357 5.443-6.67 25.642 5.966 32.165 13.963 7.208 25.72-6.308 19.187-15.556-3.22-4.558-9.426-5.018-13.137-1.456 5.772-5.417 15.277-.706 14.63 7.826-.892 11.763-19.539 16.647-29.626-.522-7.982-13.591.33-24.302 9.599-22.069 10.645 2.565 13.822 18.486 2.274 26.816-12.79 9.226-33.129 1.617-42.37-13.974l-1.432.854zm845 423.3c25.389-15.188 23.239-48.998 2.104-52.216-11.487-1.712-19.975 8.702-16.188 17.307 5.443 12.357 25.642 6.67 32.165-5.966 7.208-13.963-6.308-25.72-15.556-19.188-4.558 3.22-5.018 9.426-1.456 13.137-5.417-5.772-.706-15.277 7.826-14.63 11.763.892 16.647 19.539-.522 29.626-13.591 7.982-24.302-.33-22.069-9.599 2.565-10.645 18.486-13.822 26.816-2.274 9.226 12.79 1.617 33.129-13.974 42.37l.854 1.433zm423.3-845.09c-15.188-25.389-48.999-23.238-52.216-2.104-1.712 11.487 8.702 19.975 17.307 16.188 12.357-5.443 6.67-25.642-5.966-32.165-13.963-7.209-25.72 6.308-19.188 15.555 3.22 4.559 9.426 5.018 13.137 1.456-5.772 5.417-15.277.706-14.63-7.826.892-11.763 19.539-16.647 29.626.522 7.982 13.591-.33 24.302-9.599 22.069-10.646-2.565-13.822-18.486-2.274-26.816 12.79-9.226 33.129-1.617 42.37 13.974l1.433-.853zM1049.5 204.5c25.389 15.188 23.239 48.998 2.104 52.216-11.487 1.712-19.975-8.702-16.188-17.307 5.443-12.357 25.642-6.67 32.165 5.966 7.208 13.963-6.308 25.72-15.556 19.188-4.558-3.22-5.018-9.426-1.456-13.137-5.417 5.772-.706 15.277 7.826 14.63 11.763-.892 16.647-19.539-.522-29.626-13.591-7.982-24.302.33-22.069 9.599 2.565 10.645 18.486 13.822 26.816 2.274 9.226-12.79 1.617-33.129-13.974-42.37l.854-1.433zm-845 423.24c15.188-25.389 48.998-23.238 52.216-2.104 1.712 11.487-8.702 19.975-17.307 16.188-12.357-5.443-6.67-25.642 5.966-32.165 13.963-7.209 25.72 6.308 19.187 15.555-3.22 4.559-9.426 5.018-13.137 1.456 5.772 5.417 15.277.706 14.63-7.826-.892-11.763-19.539-16.647-29.626.522-7.982 13.591.33 24.302 9.599 22.069 10.645-2.565 13.822-18.486 2.274-26.816-12.79-9.226-33.129-1.617-42.37 13.974l-1.432-.853zm423.24 845.09c-25.389-15.188-23.238-48.998-2.104-52.216 11.487-1.712 19.975 8.702 16.188 17.307-5.443 12.357-25.642 6.67-32.165-5.966-7.209-13.963 6.308-25.72 15.555-19.188 4.559 3.22 5.018 9.426 1.456 13.137 5.417-5.772.706-15.277-7.826-14.63-11.763.892-16.647 19.539.522 29.626 13.591 7.982 24.302-.33 22.069-9.599-2.565-10.645-18.486-13.822-26.816-2.274-9.226 12.79-1.617 33.129 13.974 42.37l-.853 1.433zm845.06-423.3c-15.188 25.389-48.999 23.239-52.216 2.104-1.712-11.487 8.702-19.975 17.307-16.188 12.357 5.443 6.67 25.642-5.966 32.165-13.963 7.208-25.72-6.308-19.188-15.556 3.22-4.558 9.426-5.018 13.137-1.456-5.772-5.417-15.277-.706-14.63 7.826.892 11.763 19.539 16.647 29.626-.522 7.982-13.591-.33-24.302-9.599-22.069-10.646 2.565-13.822 18.486-2.274 26.816 12.79 9.226 33.129 1.617 42.37-13.974l1.433.854zM821.28 123.81c-6.174-2.623-12.767-3.997-20.129-3.041-17.396 2.944-30.905 21.662-25.675 39.449a34.56 34.56 0 0 0 2.732 6.664 34.56 34.56 0 0 0 6.664 2.732c17.788 5.23 36.506-8.279 39.449-25.675.957-7.362-.418-13.955-3.041-20.129zm-52.811 52.811c-10.158-15.608-10.177-38.45.908-51.805 12.182-15.571 37.665-15.379 56.916-6.018 9.361 19.251 9.553 44.734-6.018 56.916-13.356 11.084-36.198 11.065-51.806.907zM123.81 856.03c-2.623 6.174-3.997 12.767-3.041 20.129 2.944 17.396 21.662 30.905 39.449 25.675a34.56 34.56 0 0 0 6.664-2.732 34.56 34.56 0 0 0 2.732-6.664c5.23-17.788-8.279-36.506-25.675-39.449-7.362-.956-13.954.418-20.129 3.041zm52.811 52.811c-15.608 10.158-38.45 10.177-51.805-.907-15.571-12.182-15.379-37.665-6.018-56.916 19.251-9.361 44.734-9.553 56.916 6.018 11.084 13.355 11.065 36.197.907 51.805zM856 1553.43c6.174 2.623 12.767 3.997 20.129 3.041 17.396-2.943 30.905-21.662 25.675-39.449a34.56 34.56 0 0 0-2.732-6.664 34.56 34.56 0 0 0-6.664-2.732c-17.788-5.23-36.506 8.278-39.449 25.675-.956 7.362.418 13.955 3.041 20.129zm52.811-52.811c10.158 15.608 10.177 38.45-.907 51.805-12.182 15.571-37.665 15.379-56.916 6.018-9.361-19.251-9.553-44.734 6.018-56.916 13.355-11.084 36.197-11.065 51.805-.907zM1553.5 821.33c2.623-6.174 3.997-12.767 3.041-20.129-2.944-17.396-21.662-30.905-39.449-25.675a34.56 34.56 0 0 0-6.664 2.732 34.56 34.56 0 0 0-2.732 6.664c-5.23 17.788 8.278 36.506 25.675 39.449 7.362.956 13.955-.418 20.129-3.041zm-52.811-52.811c15.608-10.158 38.45-10.177 51.805.908 15.571 12.182 15.379 37.665 6.018 56.916-19.251 9.361-44.734 9.553-56.916-6.018-11.083-13.356-11.065-36.198-.907-51.806zM856 123.81c6.174-2.623 12.767-3.997 20.129-3.041 17.396 2.944 30.905 21.662 25.675 39.449a34.56 34.56 0 0 1-2.732 6.664 34.56 34.56 0 0 1-6.664 2.732c-17.788 5.23-36.506-8.279-39.449-25.675-.956-7.362.418-13.955 3.041-20.129zm52.811 52.811c10.158-15.608 10.177-38.45-.907-51.805-12.182-15.571-37.665-15.379-56.916-6.018-9.361 19.251-9.553 44.734 6.018 56.916 13.355 11.084 36.197 11.065 51.805.907zM123.81 821.33c-2.623-6.174-3.997-12.767-3.041-20.129 2.944-17.396 21.662-30.905 39.449-25.675a34.56 34.56 0 0 1 6.664 2.732 34.56 34.56 0 0 1 2.732 6.664c5.23 17.788-8.279 36.506-25.675 39.449-7.362.956-13.954-.418-20.129-3.041zm52.811-52.811c-15.608-10.158-38.45-10.177-51.805.908-15.571 12.182-15.379 37.665-6.018 56.916 19.251 9.361 44.734 9.553 56.916-6.018 11.084-13.356 11.065-36.198.907-51.806zM821.28 1553.43c-6.174 2.623-12.767 3.997-20.129 3.041-17.396-2.943-30.905-21.662-25.675-39.449a34.56 34.56 0 0 1 2.732-6.664 34.56 34.56 0 0 1 6.664-2.732c17.788-5.23 36.506 8.278 39.449 25.675.957 7.362-.418 13.955-3.041 20.129zm-52.811-52.811c-10.158 15.608-10.177 38.45.908 51.805 12.182 15.571 37.665 15.379 56.916 6.018 9.361-19.251 9.553-44.734-6.018-56.916-13.356-11.084-36.198-11.065-51.806-.907zM1553.5 856.03c2.623 6.174 3.997 12.767 3.041 20.129-2.944 17.396-21.662 30.905-39.449 25.675a34.56 34.56 0 0 1-6.664-2.732 34.56 34.56 0 0 1-2.732-6.664c-5.23-17.788 8.278-36.506 25.675-39.449 7.362-.956 13.955.418 20.129 3.041zm-52.811 52.811c15.608 10.158 38.45 10.177 51.805-.907 15.571-12.182 15.379-37.665 6.018-56.916-19.251-9.361-44.734-9.553-56.916 6.018-11.083 13.355-11.065 36.197-.907 51.805z"/><path d="M838.64 89.02c-74.278-63.53-132.99 11.106-169.88-21.89 36.721 35.93 97.279-39.043 169.88 31.084 72.596-70.127 133.15 4.846 169.88-31.084-36.89 32.996-95.598-41.64-169.88 21.89zm749.66 749.61c63.53-74.278-11.106-132.99 21.89-169.88-35.93 36.721 39.042 97.279-31.084 169.88 70.127 72.596-4.846 133.15 31.084 169.88-32.996-36.89 41.64-95.598-21.89-169.88zm-749.66 749.6c74.278 63.53 132.99-11.106 169.88 21.89-36.721-35.93-97.279 39.042-169.88-31.084-72.596 70.127-133.15-4.846-169.88 31.084 36.889-32.996 95.597 41.64 169.88-21.89zM89.02 838.63c-63.53 74.278 11.106 132.99-21.89 169.88 35.93-36.721-39.043-97.279 31.084-169.88-70.127-72.596 4.846-133.15-31.084-169.88 32.997 36.889-41.639 95.597 21.89 169.88zm601.25-714.69c-91.204 66.583-166.74 2.27-212.18 31.806 46.257-27.294 121.25 40.327 216.26-26.099l-4.076-5.707zM123.94 987.03c66.583 91.204 2.27 166.74 31.806 212.18-27.294-46.257 40.326-121.25-26.099-216.26l-5.707 4.076zm863.07 566.3c91.204-66.583 166.74-2.27 212.18-31.806-46.257 27.294-121.25-40.327-216.26 26.099l4.076 5.707zm566.29-863.06c-66.583-91.204-2.27-166.74-31.806-212.18 27.294 46.257-40.327 121.25 26.099 216.26l5.707-4.076zM987.01 123.94c91.204 66.583 166.74 2.27 212.18 31.806-46.257-27.294-121.25 40.327-216.26-26.099l4.076-5.707zM123.94 690.27c66.583-91.204 2.27-166.74 31.806-212.18-27.294 46.257 40.326 121.25-26.099 216.26l-5.707-4.076zm566.33 863.06c-91.204-66.583-166.74-2.27-212.18-31.806 46.257 27.294 121.25-40.327 216.26 26.099l-4.076 5.707zm863.03-566.3c-66.583 91.204-2.27 166.74-31.806 212.18 27.294-46.257-40.327-121.25 26.099-216.26l5.707 4.076z"/><path d="M835.66 93.96c-24.523-23.088-64.208-10.135-78.616 33.087-2.924 7.836-4.898 16.436-12.836 20.592-7.658 3.641-18.137.001-20.985-8.441-2.445-7.245.279-15.097 7.933-18.397 7.681-2.137 10.963 4.67 10.945 4.651 2.681 6.966-4.848 10.912-9.851 6.738 5.589 11.798 19.387-2.234 11.414-11.458-6.967-7.654-15.212-5.934-22.36.613-11.324 10.625-3.093 30.086 9.283 33.466 9.717 2.958 20.446-5.367 25.018-15.22 5.857-12.691 8.696-27.93 18.697-38.255 9.958-11.247 25.284-19.302 40.593-16.388 7.493 1.414 14.373 4.979 20.765 9.012zM93.962 841.63c-23.088 24.523-10.135 64.208 33.087 78.616 7.836 2.924 16.436 4.899 20.592 12.836 3.641 7.657.001 18.137-8.441 20.985-7.245 2.445-15.097-.279-18.397-7.933-2.137-7.681 4.67-10.963 4.651-10.945 6.966-2.681 10.912 4.848 6.738 9.85 11.798-5.589-2.234-19.387-11.458-11.414-7.654 6.967-5.934 15.212.613 22.359 10.625 11.324 30.086 3.093 33.466-9.283 2.958-9.717-5.367-20.446-15.22-25.018-12.691-5.857-27.93-8.696-38.255-18.697-11.247-9.958-19.302-25.284-16.388-40.593 1.413-7.49 4.978-14.371 9.012-20.763zm747.668 741.7c24.523 23.088 64.208 10.135 78.616-33.088 2.924-7.836 4.898-16.436 12.836-20.592 7.657-3.641 18.137-.001 20.985 8.441 2.445 7.245-.279 15.097-7.933 18.397-7.681 2.137-10.963-4.67-10.945-4.651-2.681-6.966 4.848-10.912 9.851-6.738-5.589-11.798-19.387 2.234-11.414 11.458 6.967 7.654 15.212 5.934 22.359-.613 11.324-10.625 3.093-30.086-9.283-33.466-9.717-2.958-20.446 5.367-25.018 15.22-5.857 12.691-8.696 27.93-18.697 38.255-9.958 11.247-25.284 19.302-40.593 16.388-7.492-1.413-14.372-4.978-20.764-9.011zm741.67-747.7c23.087-24.523 10.135-64.208-33.088-78.616-7.836-2.924-16.436-4.898-20.592-12.836-3.641-7.658-.001-18.137 8.441-20.985 7.245-2.445 15.097.279 18.397 7.933 2.137 7.681-4.67 10.963-4.651 10.945-6.966 2.681-10.912-4.848-6.738-9.851-11.798 5.589 2.234 19.387 11.458 11.414 7.654-6.967 5.934-15.212-.613-22.36-10.625-11.324-30.086-3.093-33.466 9.283-2.958 9.717 5.367 20.446 15.22 25.018 12.691 5.857 27.93 8.696 38.255 18.697 11.247 9.958 19.302 25.284 16.388 40.593-1.413 7.492-4.977 14.373-9.011 20.765zM841.63 93.96c24.523-23.088 64.208-10.135 78.616 33.087 2.924 7.836 4.898 16.436 12.836 20.592 7.657 3.641 18.137.001 20.985-8.441 2.445-7.245-.279-15.097-7.933-18.397-7.681-2.137-10.963 4.67-10.945 4.651-2.681 6.966 4.848 10.912 9.851 6.738-5.589 11.798-19.387-2.234-11.414-11.458 6.967-7.654 15.212-5.934 22.359.613 11.324 10.625 3.093 30.086-9.283 33.466-9.717 2.958-20.446-5.367-25.018-15.22-5.857-12.691-8.696-27.93-18.697-38.255-9.958-11.247-25.284-19.302-40.593-16.388-7.492 1.414-14.372 4.979-20.764 9.012zM93.962 835.63c-23.088-24.523-10.135-64.208 33.087-78.616 7.836-2.924 16.436-4.898 20.592-12.836 3.641-7.658.001-18.137-8.441-20.985-7.245-2.445-15.097.279-18.397 7.933-2.137 7.681 4.67 10.963 4.651 10.945 6.966 2.681 10.912-4.848 6.738-9.851 11.798 5.589-2.234 19.387-11.458 11.414-7.654-6.967-5.934-15.212.613-22.36 10.625-11.324 30.086-3.093 33.466 9.283 2.958 9.717-5.367 20.446-15.22 25.018-12.691 5.857-27.93 8.696-38.255 18.697-11.247 9.958-19.302 25.284-16.388 40.593 1.413 7.492 4.978 14.373 9.012 20.765zm741.698 747.7c-24.523 23.088-64.208 10.135-78.616-33.088-2.924-7.836-4.898-16.436-12.836-20.592-7.658-3.641-18.137-.001-20.985 8.441-2.445 7.245.279 15.097 7.933 18.397 7.681 2.137 10.963-4.67 10.945-4.651 2.681-6.966-4.848-10.912-9.851-6.738 5.589-11.798 19.387 2.234 11.414 11.458-6.967 7.654-15.212 5.934-22.36-.613-11.324-10.625-3.093-30.086 9.283-33.466 9.717-2.958 20.446 5.367 25.018 15.22 5.857 12.691 8.696 27.93 18.697 38.255 9.958 11.247 25.284 19.302 40.593 16.388 7.493-1.413 14.373-4.978 20.765-9.011zm747.64-741.7c23.087 24.523 10.135 64.208-33.088 78.616-7.836 2.924-16.436 4.899-20.592 12.836-3.641 7.657-.001 18.137 8.441 20.985 7.245 2.445 15.097-.279 18.397-7.933 2.137-7.681-4.67-10.963-4.651-10.945-6.966-2.681-10.912 4.848-6.738 9.85-11.798-5.589 2.234-19.387 11.458-11.414 7.654 6.967 5.934 15.212-.613 22.359-10.625 11.324-30.086 3.093-33.466-9.283-2.958-9.717 5.367-20.446 15.22-25.018 12.691-5.857 27.93-8.696 38.255-18.697 11.247-9.958 19.302-25.284 16.388-40.593-1.413-7.49-4.977-14.371-9.011-20.763zM838.64 177.88c-5.836 4.067-12.715 7.537-20.602 10.166-7.836 2.924-16.436 4.898-20.592 12.836-3.641 7.657-.001 18.137 8.441 20.985 7.245 2.445 15.097-.279 18.397-7.933 2.137-7.681-4.67-10.963-4.651-10.945-6.966-2.681-10.912 4.848-6.738 9.851-11.798-5.589 2.234-19.387 11.458-11.414 7.654 6.967 5.934 15.212-.613 22.36-10.625 11.324-30.086 3.093-33.466-9.283-2.958-9.717 5.367-20.446 15.22-25.018 10.731-4.952 23.283-7.747 33.146-14.538 9.863 6.791 22.415 9.586 33.146 14.538 9.854 4.572 18.178 15.301 15.22 25.018-3.38 12.376-22.841 20.607-33.466 9.283-6.547-7.148-8.267-15.392-.613-22.36 9.224-7.972 23.256 5.826 11.458 11.414 4.174-5.003.228-12.531-6.738-9.851.019-.018-6.788 3.265-4.651 10.945 3.3 7.654 11.151 10.378 18.397 7.933 8.442-2.849 12.081-13.328 8.441-20.985-4.155-7.937-12.756-9.912-20.592-12.836-7.887-2.629-14.766-6.1-20.602-10.166zm660.76 660.75c-4.067-5.836-7.537-12.715-10.167-20.603-2.924-7.836-4.898-16.436-12.836-20.592-7.657-3.641-18.137-.001-20.985 8.441-2.445 7.245.279 15.097 7.933 18.397 7.681 2.137 10.963-4.67 10.945-4.651 2.681-6.966-4.848-10.912-9.851-6.738 5.589-11.798 19.387 2.234 11.414 11.458-6.967 7.654-15.212 5.934-22.36-.613-11.324-10.625-3.093-30.086 9.283-33.466 9.717-2.958 20.446 5.367 25.018 15.22 4.952 10.731 7.747 23.283 14.538 33.146-6.791 9.863-9.586 22.415-14.538 33.146-4.572 9.854-15.301 18.178-25.018 15.22-12.376-3.38-20.607-22.841-9.283-33.466 7.148-6.547 15.392-8.267 22.36-.613 7.972 9.224-5.826 23.256-11.414 11.458 5.003 4.173 12.531.228 9.851-6.738.018.019-3.265-6.788-10.945-4.651-7.654 3.3-10.378 11.151-7.933 18.397 2.849 8.442 13.328 12.081 20.985 8.441 7.938-4.155 9.912-12.756 12.836-20.592 2.629-7.886 6.1-14.765 10.167-20.601zm-660.76 660.8c5.836-4.067 12.715-7.537 20.603-10.167 7.836-2.924 16.436-4.898 20.592-12.836 3.641-7.657.001-18.137-8.441-20.985-7.245-2.445-15.097.279-18.397 7.933-2.137 7.681 4.67 10.963 4.651 10.945 6.966 2.681 10.912-4.848 6.738-9.85 11.798 5.589-2.234 19.387-11.458 11.414-7.654-6.967-5.934-15.212.613-22.36 10.625-11.324 30.086-3.093 33.466 9.283 2.958 9.717-5.367 20.446-15.22 25.018-10.731 4.952-23.283 7.747-33.146 14.538-9.863-6.791-22.415-9.586-33.146-14.538-9.853-4.572-18.178-15.301-15.22-25.018 3.381-12.376 22.841-20.607 33.466-9.283 6.547 7.148 8.267 15.392.613 22.36-9.224 7.972-23.256-5.826-11.458-11.414-4.173 5.003-.228 12.531 6.738 9.85-.019.018 6.788-3.265 4.651-10.945-3.3-7.654-11.151-10.378-18.397-7.933-8.442 2.849-12.081 13.328-8.441 20.985 4.155 7.937 12.756 9.912 20.592 12.836 7.885 2.63 14.765 6.101 20.601 10.167zm-660.76-660.8c4.067 5.836 7.537 12.715 10.166 20.603 2.924 7.836 4.898 16.436 12.836 20.592 7.657 3.641 18.137.001 20.985-8.441 2.445-7.245-.279-15.097-7.933-18.397-7.681-2.137-10.963 4.67-10.945 4.651-2.681 6.966 4.848 10.912 9.851 6.738-5.589 11.798-19.387-2.234-11.414-11.458 6.967-7.654 15.212-5.934 22.36.613 11.324 10.625 3.093 30.086-9.283 33.466-9.717 2.958-20.446-5.367-25.018-15.22-4.952-10.731-7.747-23.283-14.538-33.146 6.791-9.863 9.586-22.415 14.538-33.146 4.572-9.854 15.301-18.178 25.018-15.22 12.376 3.38 20.607 22.841 9.283 33.466-7.148 6.547-15.392 8.267-22.36.613-7.972-9.224 5.826-23.256 11.414-11.458-5.003-4.173-12.531-.228-9.851 6.738-.018-.02 3.265 6.788 10.945 4.651 7.654-3.3 10.378-11.151 7.933-18.397-2.849-8.442-13.328-12.081-20.985-8.441-7.937 4.155-9.912 12.756-12.836 20.592-2.629 7.885-6.099 14.764-10.166 20.601zm383.94-683.89c-11.702-.977-20.112-.905-26.566 9.467-4.471 6.983-8.661 22.559-14.076 25.777-9.091 4.618-15.826-9.047-6.852-13.199 3.798-1.165 5.522 2.184 5.513 2.174 1.426 3.435-2.273 5.499-4.819 3.485 2.938 5.804 9.628-1.365 5.537-5.856-3.57-3.722-7.655-2.758-11.13.597-5.503 5.44-1.649 15.827 4.56 17.35 4.879 1.347 11.099-.841 14.248-8.607 11.809-26.561 10.947-31.572 35.482-29.251l-1.897-1.937zm-407.08 960.69c-.977 11.702-.905 20.112 9.467 26.566 6.983 4.471 22.559 8.661 25.777 14.076 4.618 9.092-9.048 15.827-13.199 6.852-1.165-3.798 2.184-5.522 2.174-5.513 3.435-1.426 5.499 2.273 3.485 4.819 5.804-2.938-1.365-9.628-5.856-5.537-3.722 3.57-2.758 7.655.597 11.13 5.44 5.502 15.827 1.649 17.35-4.56 1.347-4.879-.841-11.099-8.607-14.248-26.561-11.809-31.572-10.947-29.251-35.482l-1.937 1.897zm960.76 407.1c11.702.977 20.112.905 26.566-9.467 4.471-6.983 8.661-22.559 14.076-25.777 9.092-4.618 15.827 9.047 6.852 13.199-3.798 1.165-5.522-2.184-5.513-2.174-1.426-3.435 2.273-5.499 4.819-3.485-2.938-5.804-9.628 1.365-5.537 5.856 3.57 3.722 7.655 2.758 11.13-.597 5.503-5.44 1.649-15.827-4.56-17.349-4.879-1.347-11.099.841-14.248 8.607-11.809 26.561-10.947 31.572-35.482 29.251l1.897 1.936zm407-960.71c.977-11.702.905-20.112-9.467-26.566-6.983-4.471-22.559-8.661-25.777-14.076-4.618-9.092 9.047-15.826 13.199-6.852 1.165 3.798-2.184 5.522-2.174 5.513-3.435 1.426-5.499-2.273-3.485-4.819-5.804 2.938 1.365 9.628 5.856 5.537 3.722-3.57 2.758-7.655-.597-11.13-5.44-5.503-15.827-1.649-17.35 4.56-1.347 4.879.841 11.099 8.608 14.248 26.561 11.809 31.572 10.947 29.251 35.482l1.936-1.897zm-407-407.08c11.702-.977 20.112-.905 26.566 9.467 4.471 6.983 8.661 22.559 14.076 25.777 9.092 4.618 15.827-9.047 6.852-13.199-3.798-1.165-5.522 2.184-5.513 2.174-1.426 3.435 2.273 5.499 4.819 3.485-2.938 5.804-9.628-1.365-5.537-5.856 3.57-3.722 7.655-2.758 11.13.597 5.503 5.44 1.649 15.827-4.56 17.35-4.879 1.347-11.099-.841-14.248-8.607-11.809-26.561-10.947-31.572-35.482-29.251l1.897-1.937zM154.74 561.82c-.977-11.702-.905-20.112 9.467-26.566 6.983-4.471 22.559-8.661 25.777-14.076 4.618-9.092-9.048-15.826-13.199-6.852-1.165 3.798 2.184 5.522 2.174 5.513 3.435 1.426 5.499-2.273 3.485-4.819 5.804 2.938-1.365 9.628-5.856 5.537-3.722-3.57-2.758-7.655.597-11.13 5.44-5.503 15.827-1.649 17.35 4.56 1.347 4.879-.841 11.099-8.607 14.248-26.561 11.809-31.572 10.947-29.251 35.482l-1.937-1.897zm407.08 960.71c-11.702.977-20.112.905-26.566-9.467-4.471-6.983-8.661-22.559-14.076-25.777-9.091-4.618-15.826 9.047-6.852 13.199 3.798 1.165 5.522-2.184 5.513-2.174 1.426-3.435-2.273-5.499-4.819-3.485 2.938-5.804 9.628 1.365 5.537 5.856-3.57 3.722-7.655 2.758-11.13-.597-5.503-5.44-1.649-15.827 4.56-17.349 4.879-1.347 11.099.841 14.248 8.607 11.809 26.561 10.947 31.572 35.482 29.251l-1.897 1.936zm960.68-407.1c.977 11.702.905 20.112-9.467 26.566-6.983 4.471-22.559 8.661-25.777 14.076-4.618 9.092 9.047 15.827 13.199 6.852 1.165-3.798-2.184-5.522-2.174-5.513-3.435-1.426-5.499 2.273-3.485 4.819-5.804-2.938 1.365-9.628 5.856-5.537 3.722 3.57 2.758 7.655-.597 11.13-5.44 5.502-15.827 1.649-17.35-4.56-1.347-4.879.841-11.099 8.608-14.248 26.561-11.809 31.572-10.947 29.251-35.482l1.936 1.897z"/><path d="M569.85 154.81c-79.038-47.241-140.61 1-179.37-18.81 38.491 20.694 100.24-26.369 177.97 21.135l1.404-2.325zm-415.04 952.62c-47.241 79.038 1 140.61-18.81 179.37 20.694-38.491-26.369-100.24 21.135-177.97l-2.325-1.404zm952.59 415c79.038 47.241 140.61-1 179.37 18.81-38.491-20.694-100.24 26.369-177.97-21.135l-1.404 2.325zm415.1-952.58c47.241-79.038-1-140.61 18.81-179.37-20.693 38.491 26.369 100.24-21.135 177.97l2.325 1.404zm-415.1-415.04c79.038-47.241 140.61 1 179.37-18.81-38.491 20.694-100.24-26.369-177.97 21.135l-1.404-2.325zM154.81 569.85c-47.241-79.038 1-140.61-18.81-179.37 20.694 38.491-26.369 100.24 21.135 177.97l-2.325 1.404zm415.04 952.58c-79.038 47.241-140.61-1-179.37 18.81 38.491-20.694 100.24 26.369 177.97-21.135l1.404 2.325zm952.65-415c47.241 79.038-1 140.61 18.81 179.37-20.693-38.491 26.369-100.24-21.135-177.97l2.325-1.404z"/><path d="M573.72 243.46c4.361-9.358-4.726-20.495 16.862-21.241-8.624 5.324-5.534 12.137-12.15 15.79 6.933-2.941 5.563-8.758 12.709-15.588 0 0 2.207.842 1.47 8.859-.736 8.018-12.052 7.109-18.891 12.18zm-330.26 860.07c-9.358-4.361-20.495 4.726-21.241-16.862 5.324 8.624 12.137 5.534 15.79 12.151-2.941-6.933-8.758-5.563-15.588-12.709 0 0 .842-2.207 8.859-1.47s7.109 12.051 12.18 18.89zm860.14 330.3c-4.361 9.358 4.726 20.495-16.862 21.241 8.624-5.324 5.534-12.137 12.15-15.79-6.933 2.94-5.563 8.758-12.709 15.588 0 0-2.207-.842-1.47-8.859.737-8.018 12.053-7.109 18.891-12.18zm330.2-860.11c9.358 4.361 20.495-4.726 21.241 16.862-5.324-8.624-12.137-5.534-15.79-12.15 2.941 6.933 8.758 5.563 15.588 12.709 0 0-.842 2.207-8.859 1.47s-7.109-12.052-12.18-18.891zm-330.2-330.26c-4.361-9.358 4.726-20.495-16.862-21.241 8.624 5.324 5.534 12.137 12.15 15.79-6.933-2.941-5.563-8.758-12.709-15.588 0 0-2.207.842-1.47 8.859.737 8.018 12.053 7.109 18.891 12.18zM243.46 573.72c-9.358 4.361-20.495-4.726-21.241 16.862 5.324-8.624 12.137-5.534 15.79-12.15-2.941 6.933-8.758 5.563-15.588 12.709 0 0 .842 2.207 8.859 1.47s7.109-12.052 12.18-18.891zm330.26 860.11c4.361 9.358-4.726 20.495 16.862 21.241-8.624-5.324-5.534-12.137-12.15-15.79 6.933 2.94 5.563 8.758 12.709 15.588 0 0 2.207-.842 1.47-8.859-.736-8.018-12.052-7.109-18.891-12.18zm860.08-330.3c9.358-4.361 20.495 4.726 21.241-16.862-5.324 8.624-12.137 5.534-15.79 12.151 2.941-6.933 8.758-5.563 15.588-12.709 0 0-.842-2.207-8.859-1.47-8.017.736-7.109 12.051-12.18 18.89zM546.35 245.08c3.711-9.926-4.029-21.777 14.373-22.57-7.35 5.657-4.717 12.896-10.357 16.778 5.91-3.124 4.742-9.306 10.833-16.563 0 0 1.881.895 1.253 9.413s-10.273 7.553-16.102 12.942zm-301.27 885.85c-9.926-3.711-21.777 4.029-22.57-14.373 5.657 7.35 12.896 4.717 16.778 10.357-3.124-5.91-9.306-4.742-16.563-10.833 0 0 .895-1.881 9.413-1.253 8.518.629 7.553 10.274 12.942 16.102zm885.82 301.3c-3.711 9.926 4.029 21.777-14.373 22.57 7.35-5.657 4.717-12.896 10.357-16.778-5.91 3.125-4.742 9.306-10.833 16.563 0 0-1.881-.895-1.253-9.413s10.273-7.553 16.102-12.942zm301.3-885.88c9.926 3.711 21.777-4.029 22.57 14.373-5.657-7.35-12.896-4.717-16.778-10.357 3.124 5.91 9.306 4.742 16.563 10.833 0 0-.895 1.881-9.413 1.253-8.519-.629-7.554-10.274-12.942-16.102zm-301.3-301.27c-3.711-9.926 4.029-21.777-14.373-22.57 7.35 5.657 4.717 12.896 10.357 16.778-5.91-3.124-4.742-9.306-10.833-16.563 0 0-1.881.895-1.253 9.413s10.273 7.553 16.102 12.942zM245.08 546.35c-9.926 3.711-21.777-4.029-22.57 14.373 5.657-7.35 12.896-4.717 16.778-10.357-3.124 5.91-9.306 4.742-16.563 10.833 0 0 .895 1.881 9.413 1.253 8.518-.629 7.553-10.274 12.942-16.102zm301.27 885.88c3.711 9.926-4.029 21.777 14.373 22.57-7.35-5.657-4.717-12.896-10.357-16.778 5.91 3.125 4.742 9.306 10.833 16.563 0 0 1.881-.895 1.253-9.413s-10.273-7.553-16.102-12.942zm885.85-301.3c9.926-3.711 21.777 4.029 22.57-14.373-5.657 7.35-12.896 4.717-16.778 10.357 3.124-5.91 9.306-4.742 16.563-10.833 0 0-.895-1.881-9.413-1.253s-7.554 10.274-12.942 16.102zM584.73 191.6c4.04 10.522-4.383 23.107 15.664 23.948-8.011-6.003-5.141-13.684-11.287-17.803 6.441 3.315 5.168 9.874 11.806 17.575 0 0 2.05-.949 1.365-9.988s-11.196-8.015-17.548-13.732zM191.6 1092.53c10.522-4.04 23.107 4.383 23.948-15.664-6.003 8.01-13.684 5.141-17.803 11.287 3.315-6.441 9.874-5.168 17.575-11.806 0 0-.949-2.05-9.988-1.366-9.038.685-8.015 11.196-13.732 17.549zm901 393.1c-4.04-10.522 4.383-23.107-15.664-23.948 8.011 6.003 5.141 13.683 11.287 17.803-6.441-3.315-5.168-9.874-11.806-17.575 0 0-2.05.949-1.365 9.988.684 9.039 11.196 8.015 17.548 13.732zm393.1-900.9c-10.522 4.04-23.107-4.383-23.948 15.664 6.003-8.01 13.683-5.141 17.803-11.287-3.315 6.441-9.874 5.168-17.575 11.806 0 0 .949 2.05 9.988 1.366 9.038-.685 8.014-11.196 13.732-17.549zM1092.6 191.6c-4.04 10.522 4.383 23.107-15.664 23.948 8.011-6.003 5.141-13.684 11.287-17.803-6.441 3.315-5.168 9.874-11.806 17.575 0 0-2.05-.949-1.365-9.988s11.196-8.015 17.548-13.732zm-901 393.13c10.522 4.04 23.107-4.383 23.948 15.664-6.003-8.01-13.684-5.141-17.803-11.287 3.315 6.441 9.874 5.168 17.575 11.806 0 0-.949 2.05-9.988 1.366-9.038-.685-8.015-11.196-13.732-17.549zm393.13 900.9c4.04-10.522-4.383-23.107 15.664-23.948-8.011 6.003-5.141 13.683-11.287 17.803 6.441-3.315 5.168-9.874 11.806-17.575 0 0 2.05.949 1.365 9.988s-11.196 8.015-17.548 13.732zm900.97-393.1c-10.522-4.04-23.107 4.383-23.948-15.664 6.003 8.01 13.683 5.141 17.803 11.287-3.315-6.441-9.874-5.168-17.575-11.806 0 0 .949-2.05 9.988-1.366 9.038.685 8.014 11.196 13.732 17.549zM556.92 196.17c3.776 10.1-4.089 22.159 14.624 22.965-7.479-5.756-4.8-13.122-10.538-17.072 6.013 3.179 4.825 9.469 11.022 16.853 0 0 1.914-.91 1.275-9.578-.638-8.667-10.452-7.685-16.383-13.168zm-360.74 924.16c10.1-3.776 22.158 4.089 22.965-14.624-5.756 7.479-13.122 4.8-17.072 10.538 3.179-6.013 9.469-4.825 16.853-11.022 0 0-.91-1.914-9.578-1.275s-7.685 10.452-13.168 16.383zm924.22 360.8c-3.776-10.1 4.089-22.159-14.624-22.965 7.479 5.756 4.8 13.122 10.538 17.072-6.013-3.179-4.825-9.469-11.022-16.853 0 0-1.914.91-1.275 9.578s10.452 7.685 16.383 13.168zm360.7-924.22c-10.1 3.776-22.158-4.089-22.965 14.624 5.756-7.479 13.122-4.8 17.072-10.538-3.179 6.013-9.469 4.825-16.853 11.022 0 0 .91 1.914 9.578 1.275 8.667-.639 7.686-10.452 13.168-16.383zm-360.7-360.74c-3.776 10.1 4.089 22.159-14.624 22.965 7.479-5.756 4.8-13.122 10.538-17.072-6.013 3.179-4.825 9.469-11.022 16.853 0 0-1.914-.91-1.275-9.578s10.452-7.685 16.383-13.168zM196.18 556.91c10.1 3.776 22.158-4.089 22.965 14.624-5.756-7.479-13.122-4.8-17.072-10.538 3.179 6.013 9.469 4.825 16.853 11.022 0 0-.91 1.914-9.578 1.275-8.667-.639-7.685-10.452-13.168-16.383zm360.74 924.22c3.776-10.1-4.089-22.159 14.624-22.965-7.479 5.756-4.8 13.122-10.538 17.072 6.013-3.179 4.825-9.469 11.022-16.853 0 0 1.914.91 1.275 9.578-.638 8.667-10.452 7.685-16.383 13.168zm924.18-360.8c-10.1-3.776-22.158 4.089-22.965-14.624 5.756 7.479 13.122 4.8 17.072 10.538-3.179-6.013-9.469-4.825-16.853-11.022 0 0 .91-1.914 9.578-1.275s7.686 10.452 13.168 16.383zM512.54 204.64c11.055 7.101 12.168 24.616 31.03 11.74-11.499-.16-14.259-9.303-22.742-8.971 8.188-1.285 11.618 5.72 23.055 8.404 0 0 1.204-2.285-5.745-10.278s-15.809.128-25.598-.895zm-307.9 960.09c7.101-11.055 24.616-12.168 11.74-31.03-.16 11.499-9.303 14.259-8.971 22.741-1.285-8.188 5.72-11.618 8.404-23.055 0 0-2.285-1.204-10.277 5.745-7.993 6.949.127 15.81-.896 25.599zm960.06 307.9c-11.055-7.101-12.168-24.616-31.03-11.74 11.499.16 14.259 9.303 22.742 8.971-8.188 1.285-11.618-5.72-23.055-8.404 0 0-1.204 2.285 5.745 10.277 6.949 7.993 15.81-.126 25.598.896zm307.9-960.09c-7.101 11.055-24.616 12.168-11.74 31.03.16-11.499 9.303-14.259 8.971-22.742 1.285 8.188-5.72 11.618-8.404 23.055 0 0 2.285 1.204 10.277-5.745 7.992-6.948-.127-15.809.896-25.598zm-307.9-307.9c-11.055 7.101-12.168 24.616-31.03 11.74 11.499-.16 14.259-9.303 22.742-8.971-8.188-1.285-11.618 5.72-23.055 8.404 0 0-1.204-2.285 5.745-10.278 6.949-7.992 15.81.128 25.598-.895zm-960.06 307.9c7.101 11.055 24.616 12.168 11.74 31.03-.16-11.499-9.303-14.259-8.971-22.742-1.285 8.188 5.72 11.618 8.404 23.055 0 0-2.285 1.204-10.277-5.745s.127-15.809-.896-25.598zm307.9 960.09c11.055-7.101 12.168-24.616 31.03-11.74-11.499.16-14.259 9.303-22.742 8.971 8.188 1.285 11.618-5.72 23.055-8.404 0 0 1.204 2.285-5.745 10.277-6.948 7.993-15.809-.126-25.598.896zm960.06-307.9c-7.101-11.055-24.616-12.168-11.74-31.03.16 11.499 9.303 14.259 8.971 22.741 1.285-8.188-5.72-11.618-8.404-23.055 0 0 2.285-1.204 10.277 5.745s-.127 15.81.896 25.599zM641.68 58.77c11.055 7.101 12.168 24.616 31.03 11.74-11.499-.16-14.259-9.303-22.742-8.971 8.188-1.285 11.618 5.72 23.055 8.404 0 0 1.204-2.285-5.745-10.277-6.948-7.993-15.809.127-25.598-.896zM58.769 1035.63c7.101-11.055 24.616-12.168 11.74-31.03-.16 11.499-9.303 14.259-8.971 22.742-1.285-8.188 5.72-11.618 8.404-23.055 0 0-2.285-1.204-10.278 5.745-7.992 6.948.128 15.809-.895 25.598zm976.831 582.9c-11.055-7.101-12.168-24.616-31.03-11.74 11.499.16 14.259 9.303 22.742 8.971-8.188 1.285-11.618-5.72-23.055-8.404 0 0-1.204 2.285 5.745 10.278 6.948 7.992 15.809-.128 25.598.895zm582.9-976.86c-7.101 11.055-24.616 12.168-11.74 31.03.16-11.499 9.303-14.259 8.971-22.742 1.285 8.188-5.72 11.618-8.404 23.055 0 0 2.285 1.204 10.278-5.745s-.127-15.81.895-25.598zm-582.9-582.9c-11.055 7.101-12.168 24.616-31.03 11.74 11.499-.16 14.259-9.303 22.742-8.971-8.188-1.285-11.618 5.72-23.055 8.404 0 0-1.204-2.285 5.745-10.277 6.948-7.993 15.809.127 25.598-.896zM58.769 641.67c7.101 11.055 24.616 12.168 11.74 31.03-.16-11.499-9.303-14.259-8.971-22.742-1.285 8.188 5.72 11.618 8.404 23.055 0 0-2.285 1.204-10.278-5.745-7.992-6.949.128-15.81-.895-25.598zm582.911 976.86c11.055-7.101 12.168-24.616 31.03-11.74-11.499.16-14.259 9.303-22.742 8.971 8.188 1.285 11.618-5.72 23.055-8.404 0 0 1.204 2.285-5.745 10.278s-15.809-.128-25.598.895zm976.82-582.9c-7.101-11.055-24.616-12.168-11.74-31.03.16 11.499 9.303 14.259 8.971 22.742 1.285-8.188-5.72-11.618-8.404-23.055 0 0 2.285-1.204 10.278 5.745s-.127 15.809.895 25.598zM659.69 99.78c12.102-5.118 27.188 3.836 27.205-18.989-6.622 9.402-15.728 6.52-20.241 13.71 3.56-7.485 11.279-6.362 19.95-14.289 0 0-1.207-2.284-11.727-1.058-10.52 1.225-8.818 13.123-15.187 20.626zM99.785 1017.63c-5.118-12.102 3.836-27.188-18.989-27.205 9.402 6.622 6.52 15.728 13.71 20.241-7.485-3.56-6.362-11.28-14.289-19.95 0 0-2.284 1.207-1.058 11.726 1.225 10.52 13.122 8.819 20.626 15.188zm917.815 559.9c-12.102 5.118-27.188-3.836-27.205 18.989 6.622-9.402 15.728-6.521 20.241-13.71-3.56 7.485-11.279 6.362-19.95 14.289 0 0 1.207 2.283 11.727 1.058 10.519-1.225 8.818-13.123 15.187-20.626zm559.9-917.84c5.118 12.102-3.836 27.188 18.989 27.205-9.402-6.622-6.52-15.728-13.71-20.241 7.485 3.56 6.362 11.279 14.289 19.95 0 0 2.283-1.207 1.058-11.727s-13.123-8.818-20.626-15.187zM1017.6 99.78c-12.102-5.118-27.188 3.836-27.205-18.989 6.622 9.402 15.728 6.52 20.241 13.71-3.56-7.485-11.279-6.362-19.95-14.289 0 0 1.207-2.284 11.727-1.058 10.519 1.225 8.818 13.123 15.187 20.626zM99.785 659.69c-5.118 12.102 3.836 27.188-18.989 27.205 9.402-6.622 6.52-15.728 13.71-20.241-7.485 3.56-6.362 11.279-14.289 19.95 0 0-2.284-1.207-1.058-11.727 1.225-10.519 13.122-8.818 20.626-15.187zm559.905 917.84c12.102 5.118 27.188-3.836 27.205 18.989-6.622-9.402-15.728-6.521-20.241-13.71 3.56 7.485 11.279 6.362 19.95 14.289 0 0-1.207 2.283-11.727 1.058s-8.818-13.123-15.187-20.626zm917.81-559.9c5.118-12.102-3.836-27.188 18.989-27.205-9.402 6.622-6.52 15.728-13.71 20.241 7.485-3.56 6.362-11.28 14.289-19.95 0 0 2.283 1.207 1.058 11.726s-13.123 8.819-20.626 15.188zM755.3 183.31c-1.349-9.004-12.096-14.686 1.391-22.947-3.164 7.314 1.831 11.655-.788 16.922 3.138-4.811-.316-8.968 1.235-16.959 0 0 1.786-.112 4.865 6.55 3.078 6.661-4.57 9.956-6.703 16.434zM183.32 922.03c-9.004 1.349-14.686 12.096-22.947-1.391 7.314 3.164 11.655-1.831 16.922.788-4.811-3.138-8.968.316-16.959-1.235 0 0-.112-1.786 6.55-4.865 6.661-3.079 9.956 4.569 16.434 6.703zm738.67 571.9c1.349 9.004 12.096 14.686-1.391 22.947 3.164-7.314-1.831-11.655.788-16.922-3.138 4.811.316 8.968-1.235 16.959 0 0-1.786.112-4.865-6.55-3.079-6.661 4.57-9.956 6.703-16.434zM1494 755.33c9.004-1.349 14.686-12.096 22.947 1.391-7.314-3.164-11.655 1.831-16.922-.788 4.811 3.138 8.968-.316 16.959 1.235 0 0 .112 1.786-6.55 4.865-6.661 3.079-9.956-4.569-16.434-6.703zM921.99 183.31c1.349-9.004 12.096-14.686-1.391-22.947 3.164 7.314-1.831 11.655.788 16.922-3.138-4.811.316-8.968-1.235-16.959 0 0-1.786-.112-4.865 6.55-3.079 6.661 4.57 9.956 6.703 16.434zM183.32 755.33c-9.004-1.349-14.686-12.096-22.947 1.391 7.314-3.164 11.655 1.831 16.922-.788-4.811 3.138-8.968-.316-16.959 1.235 0 0-.112 1.786 6.55 4.865 6.661 3.079 9.956-4.569 16.434-6.703zm571.98 738.6c-1.349 9.004-12.096 14.686 1.391 22.947-3.164-7.314 1.831-11.655-.788-16.922 3.138 4.811-.316 8.968 1.235 16.959 0 0 1.786.112 4.865-6.55 3.078-6.661-4.57-9.956-6.703-16.434zm738.7-571.9c9.004 1.349 14.686 12.096 22.947-1.391-7.314 3.164-11.655-1.831-16.922.788 4.811-3.138 8.968.316 16.959-1.235 0 0 .112-1.786-6.55-4.865-6.661-3.079-9.956 4.569-16.434 6.703zM761.77 189.79c9.004 1.349 14.686 12.096 22.947-1.391-7.314 3.164-11.655-1.831-16.922.788 4.811-3.138 8.968.316 16.959-1.235 0 0 .112-1.786-6.55-4.865-6.661-3.079-9.956 4.569-16.434 6.703zM189.79 915.53c1.349-9.004 12.096-14.686-1.391-22.947 3.164 7.314-1.831 11.655.788 16.922-3.138-4.811.316-8.968-1.235-16.959 0 0-1.786-.112-4.865 6.55-3.079 6.661 4.57 9.956 6.703 16.434zm725.72 572c-9.004-1.349-14.686-12.096-22.947 1.391 7.314-3.164 11.655 1.831 16.922-.788-4.811 3.138-8.968-.316-16.959 1.235 0 0-.112 1.786 6.55 4.865s9.957-4.569 16.434-6.703zm571.99-725.8c-1.349 9.004-12.096 14.686 1.391 22.947-3.164-7.314 1.831-11.655-.788-16.922 3.138 4.811-.316 8.968 1.235 16.959 0 0 1.786.112 4.865-6.55 3.078-6.661-4.57-9.956-6.703-16.434zM915.51 189.79c-9.004 1.349-14.686 12.096-22.947-1.391 7.314 3.164 11.655-1.831 16.922.788-4.811-3.138-8.968.316-16.959-1.235 0 0-.112-1.786 6.55-4.865 6.661-3.079 9.957 4.569 16.434 6.703zM189.79 761.73c1.349 9.004 12.096 14.686-1.391 22.947 3.164-7.314-1.831-11.655.788-16.922-3.138 4.811.316 8.968-1.235 16.959 0 0-1.786.112-4.865-6.55-3.079-6.661 4.57-9.956 6.703-16.434zm571.98 725.8c9.004-1.349 14.686-12.096 22.947 1.391-7.314-3.164-11.655 1.831-16.922-.788 4.811 3.138 8.968-.316 16.959 1.235 0 0 .112 1.786-6.55 4.865-6.661 3.079-9.956-4.569-16.434-6.703zm725.73-572c-1.349-9.004-12.096-14.686 1.391-22.947-3.164 7.314 1.831 11.655-.788 16.922 3.138-4.811-.316-8.968 1.235-16.959 0 0 1.786-.112 4.865 6.55 3.078 6.661-4.57 9.956-6.703 16.434zM604.75 102.95c-10.986-7.207-27.437-1.096-23.353-23.565 4.826 10.439 14.301 9.238 17.45 17.121-2.159-8.003-9.954-8.284-17.06-17.638 0 0 1.597-2.03 11.726 1.064s6.319 14.493 11.237 23.018zm-501.8 969.58c-7.207 10.986-1.096 27.437-23.565 23.353 10.439-4.826 9.238-14.301 17.121-17.45-8.003 2.159-8.284 9.954-17.638 17.06 0 0-2.03-1.597 1.064-11.726s14.493-6.319 23.018-11.237zm969.55 501.8c10.986 7.207 27.438 1.096 23.353 23.565-4.826-10.439-14.302-9.238-17.45-17.121 2.159 8.003 9.954 8.284 17.06 17.638 0 0-1.597 2.03-11.726-1.064s-6.318-14.493-11.237-23.018zm501.8-969.58c7.207-10.986 1.096-27.437 23.565-23.353-10.439 4.826-9.238 14.301-17.121 17.45 8.003-2.159 8.284-9.954 17.638-17.06 0 0 2.03 1.597-1.064 11.726s-14.493 6.319-23.018 11.237zm-501.8-501.8c10.986-7.207 27.438-1.096 23.353-23.565-4.826 10.439-14.302 9.238-17.45 17.121 2.159-8.003 9.954-8.284 17.06-17.638 0 0-1.597-2.03-11.726 1.064s-6.318 14.493-11.237 23.018zm-969.55 501.8c-7.207-10.986-1.096-27.437-23.565-23.353 10.439 4.826 9.238 14.301 17.121 17.45-8.003-2.159-8.284-9.954-17.638-17.06 0 0-2.03 1.597 1.064 11.726s14.493 6.319 23.018 11.237zm501.8 969.58c-10.986 7.207-27.437 1.096-23.353 23.565 4.826-10.439 14.301-9.238 17.45-17.121-2.159 8.003-9.954 8.284-17.06 17.638 0 0 1.597 2.03 11.726-1.064s6.319-14.493 11.237-23.018zm969.55-501.8c7.207 10.986 1.096 27.437 23.565 23.353-10.439-4.826-9.238-14.301-17.121-17.45 8.003 2.159 8.284 9.954 17.638 17.06 0 0 2.03-1.597-1.064-11.726s-14.493-6.319-23.018-11.237zM397.88 167.38c4.915-10.546-5.326-23.098 19.004-23.939-9.719 6-6.237 13.678-13.694 17.796 7.814-3.314 6.27-9.871 14.323-17.568 0 0 2.487.949 1.657 9.984-.831 9.036-13.583 8.012-21.29 13.727zM167.39 1279.43c-10.546-4.915-23.098 5.326-23.939-19.004 6 9.719 13.678 6.237 17.796 13.694-3.314-7.814-9.871-6.27-17.568-14.323 0 0 .949-2.487 9.984-1.657s8.012 13.583 13.727 21.29zm1112.01 230.5c-4.915 10.546 5.326 23.098-19.004 23.939 9.719-6 6.237-13.678 13.694-17.796-7.814 3.314-6.27 9.871-14.323 17.568 0 0-2.487-.949-1.657-9.984.83-9.036 13.583-8.012 21.29-13.727zm230.5-1112.06c10.546 4.915 23.098-5.326 23.939 19.004-6-9.719-13.678-6.237-17.796-13.694 3.314 7.814 9.871 6.27 17.568 14.323 0 0-.949 2.487-9.984 1.657-9.036-.83-8.012-13.583-13.727-21.29zm-230.5-230.49c-4.915-10.546 5.326-23.098-19.004-23.939 9.719 6 6.237 13.678 13.694 17.796-7.814-3.314-6.27-9.871-14.323-17.568 0 0-2.487.949-1.657 9.984.83 9.036 13.583 8.012 21.29 13.727zM167.39 397.87c-10.546 4.915-23.098-5.326-23.939 19.004 6-9.719 13.678-6.237 17.796-13.694-3.314 7.814-9.871 6.27-17.568 14.323 0 0 .949 2.487 9.984 1.657s8.012-13.583 13.727-21.29zm230.49 1112.06c4.915 10.546-5.326 23.098 19.004 23.939-9.719-6-6.237-13.678-13.694-17.796 7.814 3.314 6.27 9.871 14.323 17.568 0 0 2.487-.949 1.657-9.984-.831-9.036-13.583-8.012-21.29-13.727zm1112.02-230.5c10.546-4.915 23.098 5.326 23.939-19.004-6 9.719-13.678 6.237-17.796 13.694 3.314-7.814 9.871-6.27 17.568-14.323 0 0-.949-2.487-9.984-1.657s-8.012 13.583-13.727 21.29zM410.82 111.01c4.592 11.96-4.983 26.267 17.805 27.223-9.106-6.823-5.844-15.555-12.83-20.237 7.321 3.769 5.874 11.225 13.42 19.978 0 0 2.331-1.079 1.552-11.354-.777-10.275-12.726-9.111-19.947-15.61zM111.01 1266.43c11.96-4.592 26.267 4.983 27.223-17.806-6.823 9.106-15.555 5.844-20.237 12.83 3.769-7.321 11.225-5.874 19.978-13.42 0 0-1.079-2.331-11.354-1.552s-9.111 12.727-15.61 19.948zm1155.49 299.8c-4.592-11.96 4.983-26.267-17.805-27.223 9.106 6.823 5.844 15.555 12.83 20.237-7.321-3.769-5.874-11.225-13.42-19.978 0 0-2.33 1.079-1.552 11.354s12.726 9.111 19.947 15.61zm299.8-1155.41c-11.96 4.592-26.267-4.983-27.223 17.805 6.823-9.106 15.555-5.844 20.237-12.83-3.769 7.321-11.225 5.874-19.978 13.42 0 0 1.079 2.331 11.354 1.552 10.274-.778 9.11-12.726 15.61-19.947zm-299.8-299.81c-4.592 11.96 4.983 26.267-17.805 27.223 9.106-6.823 5.844-15.555 12.83-20.237-7.321 3.769-5.874 11.225-13.42 19.978 0 0-2.33-1.079-1.552-11.354s12.726-9.111 19.947-15.61zM111.01 410.82c11.96 4.592 26.267-4.983 27.223 17.805-6.823-9.106-15.555-5.844-20.237-12.83 3.769 7.321 11.225 5.874 19.978 13.42 0 0-1.079 2.331-11.354 1.552-10.275-.778-9.111-12.726-15.61-19.947zm299.81 1155.41c4.592-11.96-4.983-26.267 17.805-27.223-9.106 6.823-5.844 15.555-12.83 20.237 7.321-3.769 5.874-11.225 13.42-19.978 0 0 2.331 1.079 1.552 11.354-.777 10.275-12.726 9.111-19.947 15.61zm1155.48-299.8c-11.96-4.592-26.267 4.983-27.223-17.806 6.823 9.106 15.555 5.844 20.237 12.83-3.769-7.321-11.225-5.874-19.978-13.42 0 0 1.079-2.331 11.354-1.552 10.274.779 9.11 12.727 15.61 19.948zM352.28 107.25c12.956 14.949 7.132 40.723 39.843 30.127-16.543-5.111-16.651-19.49-29.045-22.609 12.374 1.618 14.356 13.193 29.738 21.923 0 0 2.709-2.79-3.937-17.284s-22.892-6.525-36.599-12.157zM107.25 1325.03c14.949-12.956 40.723-7.132 30.127-39.843-5.111 16.544-19.49 16.651-22.609 29.045 1.618-12.374 13.193-14.356 21.923-29.738 0 0-2.79-2.709-17.284 3.938-14.495 6.646-6.526 22.892-12.157 36.598zm1217.75 245c-12.956-14.949-7.132-40.723-39.843-30.127 16.543 5.111 16.651 19.49 29.045 22.609-12.374-1.618-14.356-13.193-29.738-21.923 0 0-2.709 2.79 3.938 17.284 6.646 14.494 22.892 6.525 36.598 12.157zm245-1217.75c-14.949 12.956-40.723 7.132-30.127 39.843 5.111-16.544 19.49-16.651 22.609-29.045-1.618 12.374-13.193 14.356-21.923 29.738 0 0 2.79 2.709 17.284-3.937s6.526-22.893 12.157-36.599zm-245-245.03c-12.956 14.949-7.132 40.723-39.843 30.127 16.543-5.111 16.651-19.49 29.045-22.609-12.374 1.618-14.356 13.193-29.738 21.923 0 0-2.709-2.79 3.938-17.284 6.646-14.494 22.892-6.525 36.598-12.157zM107.25 352.28c14.949 12.956 40.723 7.132 30.127 39.843-5.111-16.544-19.49-16.651-22.609-29.045 1.618 12.374 13.193 14.356 21.923 29.738 0 0-2.79 2.709-17.284-3.937-14.495-6.647-6.526-22.893-12.157-36.599zm245.03 1217.75c12.956-14.949 7.132-40.723 39.843-30.127-16.543 5.111-16.651 19.49-29.045 22.609 12.374-1.618 14.356-13.193 29.738-21.923 0 0 2.709 2.79-3.937 17.284s-22.892 6.525-36.599 12.157zm1217.72-245c-14.949-12.956-40.723-7.132-30.127-39.843 5.111 16.544 19.49 16.651 22.609 29.045-1.618-12.374-13.193-14.356-21.923-29.738 0 0 2.79-2.709 17.284 3.938 14.495 6.646 6.526 22.892 12.157 36.598z" fill="#000400" stroke="#000" stroke-width=".5"/><path d="M135.15 135.15c38.033 1.396 69.321 13.208 92.31.848-23.407 11.965-55.137-.893-94.01-2.547 1.655 38.873 14.512 70.603 2.547 94.01 12.361-22.991.549-54.279-.847-92.311zm1406.95 0c-1.396 38.033-13.208 69.321-.848 92.31-11.964-23.407.893-55.137 2.547-94.01-38.873 1.655-70.603 14.512-94.01 2.547 22.99 12.361 54.278.549 92.311-.847zm0 1406.98c-38.033-1.396-69.321-13.208-92.31-.848 23.407-11.965 55.137.893 94.01 2.547-1.655-38.873-14.512-70.603-2.547-94.01-12.361 22.991-.55 54.279.847 92.311zm-1406.95 0c1.396-38.033 13.208-69.321.848-92.31 11.965 23.407-.893 55.137-2.547 94.01 38.873-1.655 70.603-14.512 94.01-2.547-22.99-12.361-54.278-.549-92.311.847z"/><path d="M220.06 167.38c-7.707-5.715-20.46-4.692-21.291-13.727s1.657-9.984 1.657-9.984c8.054 7.697 6.509 14.254 14.323 17.568-7.456-4.117-3.975-11.796-13.694-17.796 24.331.842 14.09 13.393 19.005 23.939zm-52.67 1289.85c-5.715 7.707-4.692 20.46-13.727 21.291s-9.984-1.657-9.984-1.657c7.697-8.054 14.254-6.509 17.568-14.323-4.117 7.456-11.796 3.975-17.796 13.694.841-24.331 13.392-14.09 23.939-19.005zm1289.81 52.7c7.707 5.715 20.46 4.692 21.291 13.727s-1.657 9.984-1.657 9.984c-8.054-7.697-6.509-14.254-14.323-17.568 7.456 4.118 3.975 11.796 13.694 17.796-24.331-.842-14.09-13.393-19.005-23.939zm52.7-1289.87c5.715-7.707 4.692-20.46 13.727-21.29 9.035-.831 9.984 1.657 9.984 1.657-7.697 8.054-14.254 6.509-17.568 14.323 4.117-7.456 11.796-3.975 17.796-13.694-.841 24.33-13.393 14.089-23.939 19.004zm-52.7-52.68c7.707-5.715 20.46-4.692 21.291-13.727s-1.657-9.984-1.657-9.984c-8.054 7.697-6.509 14.254-14.323 17.568 7.456-4.117 3.975-11.796 13.694-17.796-24.331.842-14.09 13.393-19.005 23.939zM167.39 220.06c-5.715-7.707-4.692-20.46-13.727-21.29-9.035-.831-9.984 1.657-9.984 1.657 7.697 8.054 14.254 6.509 17.568 14.323-4.117-7.456-11.796-3.975-17.796-13.694.841 24.33 13.392 14.089 23.939 19.004zm52.67 1289.87c-7.707 5.715-20.46 4.692-21.291 13.727s1.657 9.984 1.657 9.984c8.054-7.697 6.509-14.254 14.323-17.568-7.456 4.118-3.975 11.796-13.694 17.796 24.331-.842 14.09-13.393 19.005-23.939zm1289.84-52.7c5.715 7.707 4.692 20.46 13.727 21.291s9.984-1.657 9.984-1.657c-7.697-8.054-14.254-6.509-17.568-14.323 4.117 7.456 11.796 3.975 17.796 13.694-.841-24.331-13.393-14.09-23.939-19.005zM187.17 126.62c-.778 10.274 1.552 11.354 1.552 11.354 7.546-8.753 6.099-16.209 13.42-19.978-6.986 4.682-3.724 13.414-12.83 20.237 22.788-.956 13.213-15.263 17.805-27.223-7.22 6.5-19.169 5.336-19.947 15.61zm-60.55 1363.51c10.274.778 11.354-1.552 11.354-1.552-8.753-7.546-16.209-6.099-19.978-13.42 4.682 6.986 13.414 3.724 20.237 12.83-.956-22.788-15.263-13.213-27.223-17.805 6.499 7.22 5.335 19.169 15.61 19.947zm1363.48 60.5c.778-10.274-1.552-11.354-1.552-11.354-7.546 8.753-6.099 16.209-13.42 19.978 6.986-4.682 3.724-13.414 12.83-20.237-22.788.956-13.213 15.263-17.805 27.223 7.22-6.5 19.168-5.336 19.947-15.61zm60.6-1363.46c-10.274-.778-11.354 1.552-11.354 1.552 8.753 7.546 16.209 6.099 19.978 13.42-4.682-6.986-13.414-3.724-20.237-12.83.956 22.788 15.263 13.213 27.223 17.805-6.5-7.22-5.336-19.169-15.61-19.947zm-60.6-60.55c.778 10.274-1.552 11.354-1.552 11.354-7.546-8.753-6.099-16.209-13.42-19.978 6.986 4.682 3.724 13.414 12.83 20.237-22.788-.956-13.213-15.263-17.805-27.223 7.22 6.5 19.168 5.336 19.947 15.61zM126.62 187.17c10.274-.778 11.354 1.552 11.354 1.552-8.753 7.546-16.209 6.099-19.978 13.42 4.682-6.986 13.414-3.724 20.237-12.83-.956 22.788-15.263 13.213-27.223 17.805 6.499-7.22 5.335-19.169 15.61-19.947zm60.55 1363.46c-.778-10.274 1.552-11.354 1.552-11.354 7.546 8.753 6.099 16.209 13.42 19.978-6.986-4.682-3.724-13.414-12.83-20.237 22.788.956 13.213 15.263 17.805 27.223-7.22-6.5-19.169-5.336-19.947-15.61zm1363.53-60.5c-10.274.778-11.354-1.552-11.354-1.552 8.753-7.546 16.209-6.099 19.978-13.42-4.682 6.986-13.414 3.724-20.237 12.83.956-22.788 15.263-13.213 27.223-17.805-6.5 7.22-5.336 19.169-15.61 19.947zM265.65 107.25c-13.706 5.631-29.952-2.338-36.599 12.156-6.646 14.494-3.937 17.284-3.937 17.284 15.382-8.73 17.364-20.305 29.738-21.923-12.394 3.119-12.501 17.499-29.045 22.609 32.711 10.597 26.887-15.176 39.843-30.126zm-158.4 1304.38c5.631 13.706-2.338 29.952 12.156 36.599 14.494 6.646 17.284 3.938 17.284 3.938-8.73-15.382-20.305-17.364-21.923-29.738 3.119 12.394 17.499 12.501 22.609 29.045 10.596-32.711-15.177-26.887-30.126-39.844zm1304.35 158.4c13.706-5.631 29.952 2.338 36.599-12.156 6.646-14.494 3.937-17.284 3.937-17.284-15.382 8.73-17.364 20.305-29.738 21.923 12.394-3.119 12.501-17.499 29.045-22.609-32.711-10.597-26.887 15.176-39.843 30.126zM1570 265.65c-5.631-13.706 2.338-29.952-12.156-36.599-14.494-6.646-17.284-3.938-17.284-3.938 8.73 15.382 20.305 17.364 21.923 29.738-3.119-12.394-17.499-12.501-22.609-29.045-10.597 32.711 15.177 26.887 30.126 39.844zm-158.4-158.4c13.706 5.631 29.952-2.338 36.599 12.156 6.646 14.494 3.937 17.284 3.937 17.284-15.382-8.73-17.364-20.305-29.738-21.923 12.394 3.119 12.501 17.499 29.045 22.609-32.711 10.597-26.887-15.176-39.843-30.126zM107.25 265.65c5.631-13.706-2.338-29.952 12.156-36.599 14.494-6.646 17.284-3.938 17.284-3.938-8.73 15.382-20.305 17.364-21.923 29.738 3.119-12.394 17.499-12.501 22.609-29.045 10.596 32.711-15.177 26.887-30.126 39.844zm158.4 1304.38c-13.706-5.631-29.952 2.338-36.599-12.156-6.646-14.494-3.937-17.284-3.937-17.284 15.382 8.73 17.364 20.305 29.738 21.923-12.394-3.119-12.501-17.499-29.045-22.609 32.711-10.597 26.887 15.176 39.843 30.126zM1570 1411.63c-5.631 13.706 2.338 29.952-12.156 36.599-14.494 6.646-17.284 3.938-17.284 3.938 8.73-15.382 20.305-17.364 21.923-29.738-3.119 12.394-17.499 12.501-22.609 29.045-10.597-32.711 15.177-26.887 30.126-39.844z" fill="#000400"/></svg>