<svg xmlns="http://www.w3.org/2000/svg" width="864" height="864"><path d="M472.831 87c-30.735 20.833-41.686 53.245-49.25 91.232-6.566-37.561-16.767-71.088-53.535-91.232 29.991-41.387 49.428-65.175 52.384-65.59 0 0 15.73 19.278 50.401 65.59z" clip-rule="evenodd" fill="#f7b1bd" fill-rule="evenodd" stroke="#df145a" stroke-width="3"/><g fill-rule="evenodd" clip-rule="evenodd" fill="#DA1C5C" stroke="#900" stroke-width="3"><path d="M479.252 392.604c-10.425 13.226-24.189 17.081-38.449 18.866-74.731 9.357-143.435-34.7-164.897-106.953-4.968-16.723-6.428-34.896-6.859-52.467-.729-29.717.899-59.485 1.058-89.234.107-20.095-1.205-40.195-8.349-59.221-3.352-8.929-8.405-17.221-13.427-27.288 12.012 1.662 23.902 2.244 35.238 5.059 50.001 12.417 88.422 40.225 111.722 87.003 10.395 20.87 16.145 43.01 16.013 66.513-.128 23.065-.743 46.154.066 69.19a202.67 202.67 0 0 0 5.338 39.502c6.72 28.278 27.01 42.048 54.208 47.442 2.468.492 4.942.944 8.338 1.588z"/><path d="M599.65 77.987c-.556 1.169-.962 2.44-1.688 3.492-19.195 27.792-22.646 59.229-21.217 91.77 1.518 34.528 4.347 69.052 4.322 103.575-.019 27.244-7.021 53.269-24.26 75.596-23.85 30.89-79.04 39.166-107.849 2.177-8.074-10.367-11.239-22.603-13.123-35.141-8.107-53.961-3.719-106.969 17.637-157.264 18.573-43.741 53.096-70.485 99.454-80.838 14.923-3.333 30.459-3.919 45.715-5.762.338.798.673 1.596 1.009 2.395z"/></g><path d="M151.144 339.756c7.207 7.604 13.505 16.429 21.79 22.579 24.008 17.825 48.404 35.202 73.412 51.588 30.136 19.746 59.905 39.572 84.294 66.689 30.477 33.884 49.77 72.706 55.651 117.979 1.443 11.114 2.243 22.312 3.524 35.364-8.885-8.053-15.776-15.459-23.786-21.341-24.314-17.858-48.774-35.55-73.712-52.52-30.143-20.511-60.431-40.737-85.498-67.609-29.295-31.406-47.311-68.215-52.959-110.933-.747-5.648-1.803-11.256-2.716-16.883v-24.913zM415.51 844.958c-.028-130.293-.057-260.587-.072-390.879 0-1.139.183-2.275.325-3.935h35.412c.191 1.822.538 3.576.538 5.33.024 128.68.021 257.358.009 386.04 0 1.147-.146 2.295-.225 3.443l-35.987.001zm64.662-98.81c.23-64.659 20.464-121.5 68.336-167.203 25.886-24.713 55.77-43.776 86.341-61.901 8.913-5.284 18.054-10.183 27.041-15.34 29.688-17.04 35.312-22.315 53.482-50.268 1.46 19.151-.039 37.332-4.427 55.164-15.592 63.38-50.983 112.621-106.311 147.38-16.971 10.662-34.265 20.819-51.062 31.744-13.314 8.658-26.718 17.381-38.938 27.46-12.186 10.05-22.949 21.824-34.462 32.964z" fill-rule="evenodd" clip-rule="evenodd" fill="#009444" stroke="#4ee100" stroke-width="3"/></svg>